<svg xmlns="http://www.w3.org/2000/svg" xmlns:xlink="http://www.w3.org/1999/xlink" width="500" zoomAndPan="magnify" viewBox="0 0 375 374.999991" height="500" preserveAspectRatio="xMidYMid meet" version="1.0"><defs><clipPath id="e68dd5f76a"><path d="M 81 81 L 294 81 L 294 294.199219 L 81 294.199219 Z M 81 81 " clip-rule="nonzero"/></clipPath></defs><g clip-path="url(#e68dd5f76a)"><path fill="#1f7a5a" d="M 287.226562 149.15625 L 255.757812 126.105469 L 255.757812 100.398438 C 255.757812 97.738281 253.984375 95.964844 251.324219 95.964844 L 213.648438 95.964844 L 200.351562 86.210938 C 191.929688 80.449219 180.402344 80.449219 171.980469 86.210938 L 159.128906 95.964844 L 123.667969 95.964844 C 121.007812 95.964844 119.234375 97.738281 119.234375 100.398438 L 119.234375 125.660156 L 87.765625 149.15625 C 83.332031 152.699219 81.117188 157.574219 81.117188 163.339844 L 81.117188 276.808594 C 81.117188 281.6875 83.332031 286.5625 86.878906 289.664062 C 86.878906 289.664062 86.878906 289.664062 87.320312 289.664062 C 90.421875 292.765625 94.414062 294.539062 98.84375 294.539062 L 276.144531 294.539062 C 280.578125 294.539062 285.011719 292.765625 288.554688 289.664062 C 292.101562 286.117188 293.875 281.6875 293.875 276.808594 L 293.875 163.339844 C 293.875 157.574219 291.660156 152.699219 287.226562 149.15625 Z M 255.757812 137.1875 L 277.03125 152.699219 L 255.757812 168.65625 Z M 176.859375 93.304688 C 182.175781 89.757812 189.710938 89.757812 194.585938 93.304688 L 198.132812 95.964844 L 173.3125 95.964844 Z M 128.101562 104.828125 L 246.890625 104.828125 L 246.890625 175.75 L 226.945312 190.820312 L 150.261719 190.820312 L 128.101562 174.863281 Z M 214.976562 199.242188 L 198.132812 212.097656 C 189.710938 217.859375 181.289062 212.539062 180.402344 212.097656 L 162.671875 199.242188 Z M 119.234375 136.742188 L 119.234375 168.214844 L 97.957031 152.699219 Z M 89.980469 276.808594 L 89.980469 163.339844 C 89.980469 161.566406 90.421875 160.234375 91.308594 158.90625 L 173.3125 218.300781 C 172.867188 218.300781 90.867188 280.355469 90.867188 280.355469 C 90.421875 279.46875 89.980469 278.140625 89.980469 276.808594 Z M 276.144531 285.675781 L 98.84375 285.675781 C 98.84375 285.675781 98.402344 285.675781 98.402344 285.675781 L 176.859375 226.28125 C 179.515625 224.507812 187.496094 220.960938 194.585938 226.28125 L 276.589844 285.675781 C 276.589844 285.675781 276.144531 285.675781 276.144531 285.675781 Z M 285.011719 276.808594 C 285.011719 278.140625 284.566406 279.027344 284.125 280.355469 L 201.679688 220.519531 C 202.121094 220.074219 203.007812 219.632812 203.453125 219.632812 L 284.125 158.90625 C 285.011719 160.234375 285.453125 161.566406 285.453125 163.339844 L 285.453125 276.808594 Z M 285.011719 276.808594 " fill-opacity="1" fill-rule="nonzero"/></g><path fill="#1f7a5a" d="M 140.953125 124.332031 L 234.480469 124.332031 C 237.140625 124.332031 238.914062 122.558594 238.914062 119.898438 C 238.914062 117.242188 237.140625 115.46875 234.480469 115.46875 L 140.953125 115.46875 C 138.292969 115.46875 136.523438 117.242188 136.523438 119.898438 C 136.523438 122.558594 138.292969 124.332031 140.953125 124.332031 Z M 140.953125 124.332031 " fill-opacity="1" fill-rule="nonzero"/><path fill="#1f7a5a" d="M 238.46875 147.824219 C 238.46875 145.164062 236.695312 143.390625 234.035156 143.390625 L 140.953125 143.390625 C 138.292969 143.390625 136.523438 145.164062 136.523438 147.824219 C 136.523438 150.484375 138.292969 152.257812 140.953125 152.257812 L 234.480469 152.257812 C 236.695312 152.257812 238.46875 150.039062 238.46875 147.824219 Z M 238.46875 147.824219 " fill-opacity="1" fill-rule="nonzero"/><path fill="#1f7a5a" d="M 217.636719 170.875 L 157.355469 170.875 C 154.695312 170.875 152.921875 172.648438 152.921875 175.304688 C 152.921875 177.964844 154.695312 179.738281 157.355469 179.738281 L 218.078125 179.738281 C 220.738281 179.738281 222.511719 177.964844 222.511719 175.304688 C 222.511719 172.648438 220.296875 170.875 217.636719 170.875 Z M 217.636719 170.875 " fill-opacity="1" fill-rule="nonzero"/></svg>