<svg xmlns="http://www.w3.org/2000/svg" xmlns:xlink="http://www.w3.org/1999/xlink" width="500" zoomAndPan="magnify" viewBox="0 0 375 374.999991" height="500" preserveAspectRatio="xMidYMid meet" version="1.0"><defs><clipPath id="20de668016"><path d="M 139 96.898438 L 237 96.898438 L 237 229 L 139 229 Z M 139 96.898438 " clip-rule="nonzero"/></clipPath><clipPath id="775f40ae06"><path d="M 91.753906 210 L 283.003906 210 L 283.003906 278.398438 L 91.753906 278.398438 Z M 91.753906 210 " clip-rule="nonzero"/></clipPath></defs><g clip-path="url(#20de668016)"><path fill="#1f7a5a" d="M 187.496094 96.898438 C 187.152344 96.898438 186.816406 96.933594 186.480469 97 C 186.148438 97.066406 185.824219 97.164062 185.507812 97.292969 C 185.191406 97.425781 184.894531 97.585938 184.609375 97.773438 C 184.328125 97.964844 184.066406 98.179688 183.824219 98.417969 C 183.582031 98.660156 183.367188 98.921875 183.179688 99.207031 C 182.988281 99.488281 182.828125 99.789062 182.699219 100.105469 C 182.566406 100.417969 182.46875 100.742188 182.402344 101.078125 C 182.335938 101.414062 182.304688 101.75 182.304688 102.089844 L 182.304688 211.121094 L 148.296875 177.113281 C 147.796875 176.738281 147.246094 176.460938 146.648438 176.285156 C 146.046875 176.109375 145.4375 176.042969 144.8125 176.085938 C 144.191406 176.132812 143.59375 176.285156 143.027344 176.542969 C 142.457031 176.804688 141.953125 177.152344 141.511719 177.59375 C 141.066406 178.039062 140.71875 178.542969 140.457031 179.109375 C 140.199219 179.679688 140.046875 180.273438 140.003906 180.898438 C 139.957031 181.523438 140.023438 182.132812 140.199219 182.734375 C 140.378906 183.332031 140.652344 183.882812 141.027344 184.382812 L 183.859375 227.214844 C 184.089844 227.464844 184.347656 227.691406 184.625 227.890625 C 184.902344 228.089844 185.195312 228.257812 185.511719 228.394531 C 185.824219 228.53125 186.144531 228.636719 186.480469 228.707031 C 186.816406 228.777344 187.152344 228.8125 187.496094 228.8125 C 187.835938 228.8125 188.175781 228.777344 188.507812 228.707031 C 188.84375 228.636719 189.167969 228.53125 189.480469 228.394531 C 189.792969 228.257812 190.089844 228.089844 190.367188 227.890625 C 190.644531 227.691406 190.898438 227.464844 191.128906 227.214844 L 233.960938 184.382812 C 234.257812 184.160156 234.53125 183.90625 234.773438 183.625 C 235.015625 183.34375 235.226562 183.039062 235.40625 182.714844 C 235.582031 182.386719 235.722656 182.046875 235.828125 181.6875 C 235.933594 181.332031 236 180.96875 236.027344 180.597656 C 236.050781 180.226562 236.039062 179.855469 235.984375 179.488281 C 235.933594 179.121094 235.839844 178.761719 235.710938 178.414062 C 235.582031 178.0625 235.414062 177.734375 235.214844 177.421875 C 235.011719 177.109375 234.78125 176.820312 234.519531 176.558594 C 234.253906 176.292969 233.96875 176.0625 233.652344 175.859375 C 233.339844 175.660156 233.011719 175.492188 232.664062 175.363281 C 232.3125 175.234375 231.957031 175.140625 231.585938 175.089844 C 231.21875 175.035156 230.851562 175.023438 230.480469 175.050781 C 230.109375 175.074219 229.742188 175.140625 229.386719 175.246094 C 229.03125 175.351562 228.6875 175.492188 228.363281 175.667969 C 228.035156 175.847656 227.730469 176.058594 227.449219 176.300781 C 227.167969 176.546875 226.917969 176.816406 226.691406 177.113281 L 192.6875 211.121094 L 192.6875 102.089844 C 192.6875 101.75 192.652344 101.414062 192.585938 101.078125 C 192.519531 100.742188 192.421875 100.417969 192.292969 100.105469 C 192.160156 99.789062 192 99.488281 191.8125 99.207031 C 191.621094 98.921875 191.40625 98.660156 191.164062 98.417969 C 190.925781 98.179688 190.664062 97.964844 190.378906 97.773438 C 190.097656 97.585938 189.796875 97.425781 189.480469 97.292969 C 189.167969 97.164062 188.84375 97.066406 188.507812 97 C 188.171875 96.933594 187.835938 96.898438 187.496094 96.898438 Z M 187.496094 96.898438 " fill-opacity="1" fill-rule="nonzero"/></g><g clip-path="url(#775f40ae06)"><path fill="#1f7a5a" d="M 283.023438 215.273438 C 283.023438 214.933594 282.992188 214.59375 282.925781 214.261719 C 282.859375 213.925781 282.761719 213.601562 282.628906 213.285156 C 282.5 212.972656 282.339844 212.671875 282.148438 212.386719 C 281.960938 212.105469 281.746094 211.84375 281.503906 211.601562 C 281.261719 211.359375 281 211.144531 280.71875 210.957031 C 280.433594 210.765625 280.132812 210.605469 279.820312 210.476562 C 279.503906 210.347656 279.179688 210.246094 278.847656 210.179688 C 278.511719 210.113281 278.171875 210.082031 277.832031 210.082031 C 277.492188 210.082031 277.15625 210.113281 276.820312 210.179688 C 276.484375 210.246094 276.160156 210.347656 275.847656 210.476562 C 275.53125 210.605469 275.230469 210.765625 274.949219 210.957031 C 274.664062 211.144531 274.402344 211.359375 274.160156 211.601562 C 273.921875 211.84375 273.707031 212.105469 273.515625 212.386719 C 273.328125 212.671875 273.167969 212.972656 273.035156 213.285156 C 272.90625 213.601562 272.808594 213.925781 272.742188 214.261719 C 272.675781 214.59375 272.640625 214.933594 272.640625 215.273438 L 272.640625 257.328125 C 272.640625 258.007812 272.574219 258.683594 272.441406 259.351562 C 272.308594 260.019531 272.113281 260.671875 271.851562 261.300781 C 271.589844 261.929688 271.269531 262.527344 270.890625 263.097656 C 270.511719 263.664062 270.082031 264.1875 269.601562 264.667969 C 269.117188 265.152344 268.59375 265.582031 268.027344 265.960938 C 267.460938 266.339844 266.859375 266.660156 266.230469 266.921875 C 265.601562 267.179688 264.953125 267.378906 264.28125 267.511719 C 263.613281 267.644531 262.9375 267.710938 262.257812 267.710938 L 112.730469 267.710938 C 112.050781 267.710938 111.375 267.644531 110.707031 267.511719 C 110.039062 267.378906 109.386719 267.179688 108.757812 266.921875 C 108.128906 266.660156 107.53125 266.339844 106.964844 265.960938 C 106.398438 265.582031 105.871094 265.152344 105.390625 264.667969 C 104.90625 264.1875 104.476562 263.664062 104.097656 263.097656 C 103.71875 262.527344 103.398438 261.929688 103.140625 261.300781 C 102.878906 260.671875 102.679688 260.019531 102.546875 259.351562 C 102.414062 258.683594 102.347656 258.007812 102.347656 257.328125 L 102.347656 218.386719 C 102.347656 218.046875 102.316406 217.710938 102.25 217.375 C 102.183594 217.039062 102.082031 216.714844 101.953125 216.402344 C 101.824219 216.085938 101.664062 215.789062 101.472656 215.503906 C 101.285156 215.21875 101.070312 214.957031 100.828125 214.71875 C 100.585938 214.476562 100.324219 214.261719 100.042969 214.070312 C 99.757812 213.882812 99.457031 213.722656 99.144531 213.589844 C 98.828125 213.460938 98.503906 213.363281 98.167969 213.296875 C 97.835938 213.230469 97.496094 213.195312 97.15625 213.195312 C 96.816406 213.195312 96.476562 213.230469 96.144531 213.296875 C 95.808594 213.363281 95.484375 213.460938 95.171875 213.589844 C 94.855469 213.722656 94.554688 213.882812 94.273438 214.070312 C 93.988281 214.261719 93.726562 214.476562 93.484375 214.71875 C 93.246094 214.957031 93.03125 215.21875 92.839844 215.503906 C 92.652344 215.789062 92.492188 216.085938 92.359375 216.402344 C 92.230469 216.714844 92.132812 217.039062 92.066406 217.375 C 92 217.710938 91.964844 218.046875 91.964844 218.386719 L 91.964844 257.328125 C 91.964844 258.007812 92 258.6875 92.066406 259.363281 C 92.132812 260.039062 92.230469 260.710938 92.363281 261.378906 C 92.496094 262.046875 92.660156 262.703125 92.859375 263.355469 C 93.054688 264.007812 93.285156 264.644531 93.546875 265.273438 C 93.804688 265.902344 94.097656 266.515625 94.417969 267.117188 C 94.738281 267.714844 95.085938 268.300781 95.464844 268.863281 C 95.84375 269.429688 96.246094 269.976562 96.679688 270.5 C 97.109375 271.027344 97.566406 271.53125 98.046875 272.011719 C 98.527344 272.492188 99.03125 272.949219 99.558594 273.378906 C 100.082031 273.8125 100.628906 274.214844 101.195312 274.59375 C 101.761719 274.972656 102.34375 275.320312 102.941406 275.640625 C 103.542969 275.960938 104.15625 276.253906 104.785156 276.511719 C 105.414062 276.773438 106.054688 277.003906 106.703125 277.199219 C 107.355469 277.398438 108.015625 277.5625 108.679688 277.695312 C 109.347656 277.828125 110.019531 277.925781 110.695312 277.996094 C 111.375 278.0625 112.050781 278.09375 112.730469 278.09375 L 262.257812 278.09375 C 262.9375 278.09375 263.617188 278.0625 264.292969 277.996094 C 264.96875 277.925781 265.640625 277.828125 266.308594 277.695312 C 266.976562 277.5625 267.636719 277.398438 268.285156 277.199219 C 268.9375 277.003906 269.578125 276.773438 270.203125 276.511719 C 270.832031 276.253906 271.445312 275.960938 272.046875 275.640625 C 272.648438 275.320312 273.230469 274.972656 273.796875 274.59375 C 274.359375 274.214844 274.90625 273.8125 275.433594 273.378906 C 275.957031 272.949219 276.460938 272.492188 276.941406 272.011719 C 277.421875 271.53125 277.878906 271.027344 278.3125 270.5 C 278.742188 269.976562 279.148438 269.429688 279.523438 268.863281 C 279.902344 268.300781 280.25 267.714844 280.574219 267.117188 C 280.894531 266.515625 281.183594 265.902344 281.445312 265.273438 C 281.703125 264.644531 281.933594 264.007812 282.128906 263.355469 C 282.328125 262.703125 282.492188 262.046875 282.625 261.378906 C 282.757812 260.710938 282.859375 260.039062 282.925781 259.363281 C 282.992188 258.6875 283.023438 258.007812 283.023438 257.328125 Z M 283.023438 215.273438 " fill-opacity="1" fill-rule="nonzero"/></g></svg>