<svg xmlns="http://www.w3.org/2000/svg" xmlns:xlink="http://www.w3.org/1999/xlink" width="500" zoomAndPan="magnify" viewBox="0 0 375 374.999991" height="500" preserveAspectRatio="xMidYMid meet" version="1.0"><defs><clipPath id="89b9033baf"><path d="M 112.5 119.8125 L 262.5 119.8125 L 262.5 255.5625 L 112.5 255.5625 Z M 112.5 119.8125 " clip-rule="nonzero"/></clipPath></defs><g clip-path="url(#89b9033baf)"><path fill="#1f7a5a" d="M 203.636719 146.367188 L 203.636719 134.941406 L 171.3125 134.941406 L 171.3125 146.367188 Z M 215.757812 199.339844 L 223.0625 199.339844 L 223.0625 186.046875 L 215.757812 186.046875 Z M 225.730469 204.671875 C 227.203125 204.671875 228.398438 203.480469 228.398438 202.007812 L 228.398438 195.359375 L 234.933594 195.359375 C 242.476562 195.359375 249.332031 192.273438 254.300781 187.304688 C 255.285156 186.324219 256.195312 185.265625 257.019531 184.144531 L 257.019531 244.347656 C 257.019531 245.863281 256.398438 247.238281 255.398438 248.238281 C 254.398438 249.238281 253.019531 249.863281 251.507812 249.863281 L 123.445312 249.863281 C 121.929688 249.863281 120.550781 249.238281 119.550781 248.238281 C 118.550781 247.238281 117.929688 245.863281 117.929688 244.347656 L 117.929688 184.144531 C 118.757812 185.265625 119.667969 186.324219 120.652344 187.304688 C 125.617188 192.273438 132.476562 195.359375 140.019531 195.359375 L 146.554688 195.359375 L 146.554688 202.007812 C 146.554688 203.480469 147.75 204.671875 149.222656 204.671875 L 161.859375 204.671875 C 163.332031 204.671875 164.527344 203.480469 164.527344 202.007812 L 164.527344 195.359375 L 210.421875 195.359375 L 210.421875 202.007812 C 210.421875 203.480469 211.617188 204.671875 213.089844 204.671875 Z M 210.421875 190.023438 L 164.527344 190.023438 L 164.527344 183.378906 C 164.527344 181.90625 163.332031 180.710938 161.859375 180.710938 L 149.222656 180.710938 C 147.75 180.710938 146.554688 181.90625 146.554688 183.378906 L 146.554688 190.023438 L 140.019531 190.023438 C 133.945312 190.023438 128.425781 187.539062 124.421875 183.535156 C 120.417969 179.53125 117.929688 174.011719 117.929688 167.9375 L 117.929688 157.214844 C 117.929688 155.703125 118.550781 154.324219 119.550781 153.324219 C 120.550781 152.324219 121.929688 151.703125 123.445312 151.703125 L 251.507812 151.703125 C 253.019531 151.703125 254.398438 152.324219 255.398438 153.324219 C 256.398438 154.324219 257.019531 155.703125 257.019531 157.214844 L 257.019531 167.9375 C 257.019531 174.011719 254.535156 179.53125 250.53125 183.535156 C 246.527344 187.539062 241.003906 190.023438 234.933594 190.023438 L 228.398438 190.023438 L 228.398438 183.378906 C 228.398438 181.90625 227.203125 180.710938 225.730469 180.710938 L 213.089844 180.710938 C 211.617188 180.710938 210.421875 181.90625 210.421875 183.378906 Z M 151.886719 199.339844 L 159.195312 199.339844 L 159.195312 186.046875 L 151.886719 186.046875 Z M 165.980469 146.367188 L 161.027344 146.367188 L 161.027344 128.765625 C 161.027344 127.792969 161.453125 126.898438 162.132812 126.246094 C 162.851562 125.5625 163.855469 125.136719 164.96875 125.136719 L 209.984375 125.136719 C 211.09375 125.136719 212.097656 125.5625 212.816406 126.246094 C 213.5 126.898438 213.925781 127.792969 213.925781 128.765625 L 213.925781 146.367188 L 208.96875 146.367188 L 208.96875 132.273438 C 208.96875 130.800781 207.777344 129.609375 206.304688 129.609375 L 168.648438 129.609375 C 167.175781 129.609375 165.980469 130.800781 165.980469 132.273438 Z M 251.507812 255.195312 L 123.445312 255.195312 C 120.460938 255.195312 117.746094 253.976562 115.78125 252.011719 C 113.816406 250.046875 112.597656 247.332031 112.597656 244.347656 L 112.597656 157.214844 C 112.597656 154.230469 113.816406 151.519531 115.78125 149.554688 C 117.746094 147.589844 120.460938 146.367188 123.445312 146.367188 L 155.691406 146.367188 L 155.691406 128.765625 C 155.691406 126.28125 156.757812 124.023438 158.464844 122.394531 C 160.144531 120.796875 162.445312 119.804688 164.96875 119.804688 L 209.984375 119.804688 C 212.503906 119.804688 214.808594 120.796875 216.484375 122.394531 C 218.195312 124.023438 219.257812 126.28125 219.257812 128.765625 L 219.257812 146.367188 L 251.507812 146.367188 C 254.492188 146.367188 257.203125 147.589844 259.167969 149.554688 C 261.132812 151.519531 262.355469 154.230469 262.355469 157.214844 L 262.355469 244.347656 C 262.355469 247.332031 261.132812 250.046875 259.167969 252.011719 C 257.203125 253.976562 254.492188 255.195312 251.507812 255.195312 Z M 251.507812 255.195312 " fill-opacity="1" fill-rule="evenodd"/></g></svg>