<svg xmlns="http://www.w3.org/2000/svg" xmlns:xlink="http://www.w3.org/1999/xlink" width="500" zoomAndPan="magnify" viewBox="0 0 375 374.999991" height="500" preserveAspectRatio="xMidYMid meet" version="1.0"><defs><clipPath id="d061d987d6"><path d="M 99 84.148438 L 276 84.148438 L 276 291 L 99 291 Z M 99 84.148438 " clip-rule="nonzero"/></clipPath></defs><path fill="#1f7a5a" d="M 174.679688 151.703125 L 173.226562 160.410156 C 172.90625 161.859375 173.871094 162.503906 175.164062 161.699219 L 182.902344 157.667969 L 190.640625 161.699219 C 191.929688 162.34375 192.738281 161.699219 192.574219 160.410156 L 191.125 151.703125 L 197.410156 145.574219 C 198.378906 144.609375 198.058594 143.640625 196.765625 143.320312 L 188.0625 142.027344 L 184.191406 134.128906 C 183.546875 132.839844 182.578125 132.839844 181.933594 134.128906 L 178.066406 142.027344 L 169.359375 143.320312 C 167.90625 143.480469 167.585938 144.449219 168.714844 145.574219 Z M 174.679688 151.703125 " fill-opacity="1" fill-rule="nonzero"/><g clip-path="url(#d061d987d6)"><path fill="#1f7a5a" d="M 274.316406 257.792969 L 242.234375 188.785156 L 239.816406 183.789062 C 240.621094 180.5625 240.460938 177.339844 240.460938 174.597656 C 240.460938 172.339844 240.296875 169.921875 240.78125 168.46875 C 241.105469 167.179688 242.554688 165.40625 243.847656 163.632812 C 246.585938 159.925781 250.132812 155.410156 250.132812 149.445312 C 250.132812 143.480469 246.746094 138.964844 243.847656 135.257812 C 242.554688 133.484375 241.105469 131.710938 240.78125 130.421875 C 240.296875 128.96875 240.460938 126.710938 240.460938 124.292969 C 240.621094 119.78125 240.621094 114.136719 237.234375 109.460938 C 233.851562 104.785156 228.367188 103.171875 224.015625 101.722656 C 221.917969 101.078125 219.660156 100.433594 218.53125 99.625 C 217.40625 98.820312 216.113281 96.886719 214.824219 95.113281 C 212.246094 91.402344 209.019531 86.566406 203.378906 84.792969 C 202.25 84.46875 200.636719 84.148438 199.023438 84.148438 C 195.316406 84.148438 191.929688 85.277344 188.867188 86.40625 C 186.609375 87.210938 184.351562 88.015625 182.902344 88.015625 C 181.449219 88.015625 179.191406 87.210938 176.9375 86.40625 C 173.871094 85.277344 170.488281 84.148438 166.777344 84.148438 C 165.167969 84.148438 163.554688 84.308594 162.101562 84.792969 C 156.460938 86.566406 153.234375 91.242188 150.65625 95.113281 C 149.367188 96.886719 148.074219 98.820312 146.949219 99.625 C 145.820312 100.433594 143.5625 101.078125 141.464844 101.722656 C 137.113281 103.011719 131.792969 104.625 128.246094 109.460938 C 124.859375 114.136719 125.019531 119.78125 125.019531 124.292969 C 125.019531 126.550781 125.179688 128.96875 124.699219 130.421875 C 124.375 131.710938 122.925781 133.484375 121.632812 135.257812 C 118.894531 138.964844 115.347656 143.480469 115.347656 149.445312 C 115.347656 155.410156 118.730469 159.925781 121.632812 163.632812 C 122.925781 165.40625 124.375 167.179688 124.699219 168.46875 C 125.179688 169.921875 125.019531 172.179688 125.019531 174.597656 C 124.859375 179.113281 124.859375 184.753906 128.246094 189.429688 C 129.210938 190.71875 130.339844 191.847656 131.628906 192.816406 L 100.835938 257.953125 C 98.257812 263.433594 99.386719 267.144531 100.675781 269.398438 C 102.449219 272.140625 105.351562 273.589844 108.734375 273.589844 C 110.507812 273.589844 112.605469 273.109375 114.703125 272.300781 L 133.886719 264.402344 C 134.210938 264.242188 134.695312 264.242188 135.015625 264.242188 C 135.824219 264.242188 136.789062 264.722656 137.273438 265.851562 L 143.722656 282.621094 C 146.625 290.035156 151.785156 290.84375 153.878906 290.84375 C 155.816406 290.84375 160.8125 290.035156 164.039062 283.265625 L 187.898438 231.671875 L 211.761719 283.265625 C 214.984375 290.199219 219.824219 290.84375 221.917969 290.84375 C 224.015625 290.84375 229.335938 290.035156 232.074219 282.621094 L 238.523438 265.851562 C 239.007812 264.722656 239.976562 264.402344 240.78125 264.402344 C 241.105469 264.402344 241.589844 264.402344 241.910156 264.5625 L 260.453125 272.464844 C 262.546875 273.429688 264.644531 273.753906 266.417969 273.753906 C 269.804688 273.753906 272.707031 272.300781 274.480469 269.5625 C 275.769531 266.980469 276.738281 263.273438 274.316406 257.792969 Z M 122.441406 149.445312 C 122.441406 143.15625 129.695312 138.160156 131.46875 132.679688 C 133.402344 126.875 130.503906 118.488281 134.050781 113.652344 C 137.597656 108.816406 146.300781 108.976562 151.140625 105.429688 C 155.976562 101.882812 158.394531 93.5 164.199219 91.5625 C 165.003906 91.242188 165.8125 91.242188 166.777344 91.242188 C 171.777344 91.242188 177.582031 95.113281 182.902344 95.113281 C 188.222656 95.113281 194.027344 91.242188 199.023438 91.242188 C 199.832031 91.242188 200.796875 91.402344 201.605469 91.5625 C 207.40625 93.5 209.828125 101.882812 214.664062 105.429688 C 219.5 108.976562 228.207031 108.816406 231.753906 113.652344 C 235.300781 118.488281 232.398438 126.710938 234.332031 132.679688 C 236.105469 138.320312 243.363281 143.320312 243.363281 149.445312 C 243.363281 155.734375 236.105469 160.730469 234.332031 166.214844 C 232.398438 172.019531 235.300781 180.402344 231.753906 185.238281 C 231.269531 185.722656 230.949219 186.207031 230.300781 186.6875 C 228.367188 187.496094 226.273438 188.140625 224.660156 188.625 C 222.402344 189.269531 220.789062 189.753906 219.5 190.398438 L 218.53125 190.882812 L 217.726562 191.6875 C 217.726562 191.6875 217.726562 191.847656 217.566406 191.847656 C 216.4375 192.332031 215.46875 192.816406 214.503906 193.460938 C 210.632812 196.203125 208.214844 202.167969 204.507812 205.390625 C 204.023438 205.554688 203.378906 205.875 202.894531 206.035156 C 201.441406 206.519531 199.832031 206.683594 198.21875 206.683594 C 196.445312 206.683594 194.511719 206.359375 192.898438 206.035156 L 192.574219 205.554688 L 189.511719 204.585938 L 189.351562 204.585938 L 189.027344 204.425781 L 188.867188 204.425781 C 185.964844 203.457031 184.511719 202.972656 183.222656 202.8125 L 181.933594 202.8125 C 180.484375 202.972656 179.03125 203.296875 175.96875 204.425781 C 172.742188 205.554688 169.195312 206.683594 165.488281 206.683594 C 164.039062 206.683594 162.746094 206.519531 161.457031 206.199219 C 157.105469 203.296875 154.6875 196.523438 150.496094 193.460938 C 149.042969 192.492188 147.269531 191.6875 145.496094 191.042969 L 145.335938 190.882812 L 144.367188 190.398438 C 143.238281 189.914062 141.949219 189.429688 139.53125 188.785156 L 136.46875 187.816406 C 135.175781 187.171875 134.210938 186.367188 133.402344 185.238281 C 129.855469 180.402344 132.757812 172.179688 130.824219 166.214844 C 129.535156 160.570312 122.441406 155.574219 122.441406 149.445312 Z M 266.257812 266.496094 C 265.449219 266.496094 264.320312 266.175781 263.03125 265.691406 L 244.492188 257.792969 C 243.199219 257.308594 241.910156 256.984375 240.621094 256.984375 C 236.914062 256.984375 233.367188 259.242188 231.914062 262.949219 L 225.464844 279.71875 C 224.5 282.296875 223.207031 283.589844 221.757812 283.589844 C 220.46875 283.589844 219.015625 282.460938 217.886719 280.039062 L 187.898438 214.742188 L 157.75 280.039062 C 156.621094 282.460938 155.332031 283.589844 153.878906 283.589844 C 152.429688 283.589844 151.140625 282.296875 150.171875 279.71875 L 143.722656 262.949219 C 142.273438 259.242188 138.726562 256.984375 135.015625 256.984375 C 133.726562 256.984375 132.4375 257.308594 131.308594 257.792969 L 112.121094 265.691406 C 110.832031 266.175781 109.703125 266.496094 108.898438 266.496094 C 106.316406 266.496094 105.511719 264.402344 107.285156 260.695312 L 137.917969 195.71875 C 139.207031 196.203125 140.335938 196.523438 141.464844 196.847656 C 141.789062 196.847656 141.949219 197.007812 142.273438 197.007812 C 142.917969 197.8125 143.722656 198.941406 144.207031 199.75 C 147.269531 204.101562 151.460938 210.066406 159.199219 212.648438 L 159.363281 212.648438 C 160.167969 213.132812 160.972656 213.453125 161.941406 213.777344 C 163.394531 214.257812 165.003906 214.582031 166.617188 214.582031 C 170.324219 214.582031 173.710938 213.453125 176.773438 212.324219 C 179.03125 211.519531 181.289062 210.710938 182.738281 210.710938 C 184.191406 210.710938 186.449219 211.519531 188.707031 212.324219 C 191.769531 213.453125 195.15625 214.582031 198.863281 214.582031 C 200.476562 214.582031 202.085938 214.257812 203.539062 213.777344 C 205.3125 213.132812 206.925781 212.324219 208.214844 211.195312 C 214.019531 208.292969 217.40625 203.457031 219.984375 199.75 C 220.46875 199.105469 220.953125 198.296875 221.597656 197.652344 C 222.402344 197.332031 223.207031 197.167969 224.015625 196.847656 C 227.078125 195.878906 230.625 194.75 233.6875 192.65625 C 234.332031 192.332031 235.140625 192.011719 235.785156 191.6875 L 267.707031 260.695312 C 269.640625 264.242188 268.835938 266.496094 266.257812 266.496094 Z M 266.257812 266.496094 " fill-opacity="1" fill-rule="nonzero"/></g><path fill="#1f7a5a" d="M 182.902344 184.269531 C 202.085938 184.269531 217.726562 168.632812 217.726562 149.445312 C 217.726562 130.257812 202.085938 114.621094 182.902344 114.621094 C 163.714844 114.621094 148.074219 130.257812 148.074219 149.445312 C 147.914062 168.632812 163.554688 184.269531 182.902344 184.269531 Z M 182.902344 121.554688 C 198.21875 121.554688 210.792969 134.128906 210.792969 149.445312 C 210.792969 164.761719 198.21875 177.339844 182.902344 177.339844 C 167.585938 177.339844 155.007812 164.761719 155.007812 149.445312 C 155.007812 133.96875 167.421875 121.554688 182.902344 121.554688 Z M 182.902344 121.554688 " fill-opacity="1" fill-rule="nonzero"/></svg>