<svg xmlns="http://www.w3.org/2000/svg" xmlns:xlink="http://www.w3.org/1999/xlink" width="500" zoomAndPan="magnify" viewBox="0 0 375 374.999991" height="500" preserveAspectRatio="xMidYMid meet" version="1.0"><path fill="#1f7a5a" d="M 235.726562 233.632812 C 239.589844 242.574219 238.535156 251.890625 238.59375 261.09375 C 238.652344 270.269531 238.652344 279.445312 238.589844 288.621094 C 238.535156 295.445312 233.042969 299.996094 226.707031 298.605469 C 222.289062 297.636719 219.183594 293.789062 219.171875 289.039062 C 219.144531 276.070312 219.097656 263.101562 219.230469 250.132812 C 219.296875 243.671875 217.394531 238.0625 213.03125 233.3125 C 210.21875 230.257812 209.195312 226.769531 210.699219 222.839844 C 212.160156 219.03125 215.140625 217.265625 219.148438 216.519531 C 226.5 215.152344 233.964844 213.972656 241.054688 211.699219 C 257.433594 206.445312 267.023438 194.75 270.523438 178.078125 C 272.667969 167.855469 273.667969 157.53125 271.046875 147.207031 C 269.355469 140.550781 266.203125 134.609375 261.511719 129.601562 C 258.085938 125.9375 257.265625 122.058594 258.960938 117.304688 C 261.488281 110.226562 261.75 102.957031 259.886719 95.183594 C 257.335938 96.054688 254.800781 96.605469 252.5625 97.738281 C 246.898438 100.609375 241.234375 103.523438 235.832031 106.84375 C 232.207031 109.070312 228.75 109.734375 224.628906 108.667969 C 204.785156 103.53125 184.929688 103.542969 165.054688 108.691406 C 161.03125 109.738281 157.554688 109.222656 154.082031 106.871094 C 147.292969 102.273438 140.152344 98.296875 132.222656 95.941406 C 131.515625 95.730469 130.785156 95.59375 129.898438 95.378906 C 128.421875 100.804688 128.304688 106.121094 129.308594 111.453125 C 129.753906 113.820312 130.46875 116.152344 131.199219 118.453125 C 132.375 122.164062 131.882812 125.566406 129.242188 128.421875 C 120.589844 137.765625 116.75 148.796875 117.253906 161.460938 C 117.601562 170.21875 118.664062 178.832031 121.929688 187.039062 C 127.222656 200.347656 137.3125 208.417969 150.664062 212.480469 C 156.933594 214.386719 163.460938 215.542969 169.9375 216.652344 C 176.515625 217.78125 180.40625 221.820312 179.535156 227.777344 C 179.257812 229.679688 178.273438 231.742188 177 233.1875 C 172.386719 238.417969 170.417969 244.367188 170.523438 251.316406 C 170.714844 263.824219 170.617188 276.339844 170.570312 288.855469 C 170.546875 294.597656 166.433594 298.832031 161.007812 298.90625 C 155.542969 298.980469 151.320312 294.644531 151.265625 288.796875 C 151.214844 283.351562 151.253906 277.902344 151.253906 272.738281 C 146.296875 272.738281 141.535156 272.996094 136.808594 272.6875 C 125.542969 271.957031 116.15625 267.042969 108.503906 258.882812 C 105.039062 255.183594 101.925781 251.148438 98.691406 247.234375 C 96.019531 244.003906 93.242188 241.136719 89.019531 239.675781 C 84.335938 238.054688 82.195312 232.488281 83.808594 227.785156 C 85.46875 222.953125 90.480469 220.296875 95.453125 221.570312 C 101.878906 223.21875 106.890625 227.03125 111.136719 231.933594 C 114.210938 235.484375 117.160156 239.148438 120.066406 242.84375 C 128.199219 253.183594 138.808594 255.335938 150.976562 252.421875 C 151.203125 249.1875 151.234375 245.996094 151.703125 242.875 C 152.160156 239.824219 153.066406 236.84375 153.792969 233.757812 C 150.332031 232.703125 146.695312 231.726562 143.144531 230.488281 C 117.203125 221.460938 103.117188 202.75 99.105469 176.023438 C 97.527344 165.488281 96.988281 154.90625 99.421875 144.375 C 101.359375 135.992188 104.820312 128.316406 109.941406 121.410156 C 110.820312 120.222656 111.136719 119.167969 110.796875 117.683594 C 108.066406 105.65625 109.058594 93.902344 113.648438 82.457031 C 115.554688 77.707031 118.707031 75.796875 123.785156 75.558594 C 135.773438 75 146.242188 79.601562 156.09375 85.503906 C 160.8125 88.335938 164.988281 88.847656 170.253906 87.800781 C 188.242188 84.226562 206.28125 84.746094 224.199219 88.605469 C 226.269531 89.050781 227.859375 88.84375 229.6875 87.726562 C 238.574219 82.28125 247.832031 77.589844 258.261719 75.9375 C 261.445312 75.429688 264.785156 75.429688 268.003906 75.722656 C 271.84375 76.070312 274.496094 78.398438 275.960938 82.003906 C 280.683594 93.652344 281.75 105.597656 279.046875 117.894531 C 278.835938 118.84375 279.070312 120.195312 279.636719 120.96875 C 289.121094 133.964844 292.816406 148.542969 291.84375 164.46875 C 291.199219 175.042969 289.570312 185.40625 285.425781 195.238281 C 277.589844 213.832031 263.378906 225.195312 244.472656 231.167969 C 241.671875 232.050781 238.820312 232.765625 235.726562 233.632812 Z M 235.726562 233.632812 " fill-opacity="1" fill-rule="nonzero"/></svg>