<svg xmlns="http://www.w3.org/2000/svg" xmlns:xlink="http://www.w3.org/1999/xlink" width="500" zoomAndPan="magnify" viewBox="0 0 375 374.999991" height="500" preserveAspectRatio="xMidYMid meet" version="1.0"><defs><clipPath id="eeb3abd285"><path d="M 59.953125 59.953125 L 314.953125 59.953125 L 314.953125 314.953125 L 59.953125 314.953125 Z M 59.953125 59.953125 " clip-rule="nonzero"/></clipPath></defs><g clip-path="url(#eeb3abd285)"><path fill="#1a1f1e" d="M 315.035156 276.25 C 315.035156 297.65625 297.683594 315.011719 276.273438 315.011719 L 98.722656 315.011719 C 77.316406 315.011719 59.964844 297.65625 59.964844 276.25 L 59.964844 98.699219 C 59.964844 77.289062 77.316406 59.9375 98.722656 59.9375 L 276.273438 59.9375 C 297.683594 59.9375 315.035156 77.289062 315.035156 98.699219 Z M 315.035156 276.25 " fill-opacity="1" fill-rule="nonzero"/></g><path fill="#1f7a5a" d="M 160.824219 150.941406 C 160.824219 151.566406 160.792969 152.1875 160.730469 152.808594 C 160.671875 153.429688 160.578125 154.046875 160.457031 154.65625 C 160.335938 155.269531 160.183594 155.875 160.003906 156.472656 C 159.824219 157.070312 159.613281 157.65625 159.375 158.234375 C 159.132812 158.808594 158.867188 159.371094 158.574219 159.921875 C 158.28125 160.472656 157.960938 161.007812 157.613281 161.527344 C 157.265625 162.046875 156.894531 162.546875 156.5 163.027344 C 156.101562 163.511719 155.683594 163.972656 155.242188 164.414062 C 154.800781 164.855469 154.339844 165.273438 153.859375 165.671875 C 153.375 166.066406 152.875 166.4375 152.355469 166.785156 C 151.835938 167.128906 151.300781 167.453125 150.75 167.746094 C 150.203125 168.039062 149.636719 168.304688 149.0625 168.542969 C 148.484375 168.785156 147.898438 168.992188 147.300781 169.175781 C 146.703125 169.355469 146.097656 169.507812 145.488281 169.628906 C 144.875 169.75 144.257812 169.84375 143.636719 169.902344 C 143.015625 169.964844 142.394531 169.996094 141.769531 169.996094 C 141.144531 169.996094 140.523438 169.964844 139.902344 169.902344 C 139.28125 169.84375 138.664062 169.75 138.050781 169.628906 C 137.441406 169.507812 136.835938 169.355469 136.238281 169.175781 C 135.640625 168.992188 135.054688 168.785156 134.476562 168.542969 C 133.902344 168.304688 133.335938 168.039062 132.785156 167.746094 C 132.238281 167.453125 131.703125 167.128906 131.183594 166.785156 C 130.664062 166.4375 130.164062 166.066406 129.679688 165.671875 C 129.199219 165.273438 128.738281 164.855469 128.296875 164.414062 C 127.855469 163.972656 127.4375 163.511719 127.039062 163.027344 C 126.644531 162.546875 126.273438 162.046875 125.925781 161.527344 C 125.578125 161.007812 125.257812 160.472656 124.964844 159.921875 C 124.671875 159.371094 124.402344 158.808594 124.164062 158.234375 C 123.925781 157.65625 123.714844 157.070312 123.535156 156.472656 C 123.355469 155.875 123.203125 155.269531 123.082031 154.65625 C 122.957031 154.046875 122.867188 153.429688 122.804688 152.808594 C 122.746094 152.1875 122.714844 151.566406 122.714844 150.941406 C 122.714844 150.316406 122.746094 149.695312 122.804688 149.074219 C 122.867188 148.453125 122.957031 147.835938 123.082031 147.222656 C 123.203125 146.609375 123.355469 146.007812 123.535156 145.410156 C 123.714844 144.8125 123.925781 144.226562 124.164062 143.648438 C 124.402344 143.070312 124.671875 142.507812 124.964844 141.957031 C 125.257812 141.40625 125.578125 140.875 125.925781 140.355469 C 126.273438 139.835938 126.644531 139.335938 127.039062 138.851562 C 127.4375 138.371094 127.855469 137.90625 128.296875 137.46875 C 128.738281 137.027344 129.199219 136.605469 129.679688 136.210938 C 130.164062 135.816406 130.664062 135.445312 131.183594 135.097656 C 131.703125 134.75 132.238281 134.429688 132.785156 134.136719 C 133.335938 133.839844 133.902344 133.574219 134.476562 133.335938 C 135.054688 133.097656 135.640625 132.886719 136.238281 132.707031 C 136.835938 132.523438 137.441406 132.375 138.050781 132.253906 C 138.664062 132.128906 139.28125 132.039062 139.902344 131.976562 C 140.523438 131.917969 141.144531 131.886719 141.769531 131.886719 C 142.394531 131.886719 143.015625 131.917969 143.636719 131.976562 C 144.257812 132.039062 144.875 132.128906 145.488281 132.253906 C 146.097656 132.375 146.703125 132.523438 147.300781 132.707031 C 147.898438 132.886719 148.484375 133.097656 149.0625 133.335938 C 149.636719 133.574219 150.203125 133.839844 150.75 134.136719 C 151.300781 134.429688 151.835938 134.75 152.355469 135.097656 C 152.875 135.445312 153.375 135.816406 153.859375 136.210938 C 154.339844 136.605469 154.800781 137.027344 155.242188 137.46875 C 155.683594 137.90625 156.101562 138.371094 156.5 138.851562 C 156.894531 139.335938 157.265625 139.835938 157.613281 140.355469 C 157.960938 140.875 158.28125 141.40625 158.574219 141.957031 C 158.867188 142.507812 159.132812 143.070312 159.375 143.648438 C 159.613281 144.226562 159.824219 144.8125 160.003906 145.410156 C 160.183594 146.007812 160.335938 146.609375 160.457031 147.222656 C 160.578125 147.835938 160.671875 148.453125 160.730469 149.074219 C 160.792969 149.695312 160.824219 150.316406 160.824219 150.941406 Z M 160.824219 150.941406 " fill-opacity="1" fill-rule="nonzero"/><path fill="#1f7a5a" d="M 125.34375 184.042969 L 158.078125 184.042969 L 158.078125 289.351562 L 125.34375 289.351562 Z M 125.34375 184.042969 " fill-opacity="1" fill-rule="nonzero"/><path fill="#1f7a5a" d="M 178.667969 184.042969 L 209.824219 184.042969 L 209.824219 289.351562 L 178.667969 289.351562 Z M 178.667969 184.042969 " fill-opacity="1" fill-rule="nonzero"/><path fill="#1f7a5a" d="M 180.011719 240.113281 L 211.171875 240.113281 L 211.171875 289.351562 L 180.011719 289.351562 Z M 180.011719 240.113281 " fill-opacity="1" fill-rule="nonzero"/><path fill="#1f7a5a" d="M 211.171875 240.113281 C 211.171875 240.113281 210.683594 226.453125 214.285156 219.351562 C 214.285156 219.351562 217.886719 210.605469 229.210938 210.554688 C 229.210938 210.554688 242.492188 208.234375 246.300781 221.410156 C 246.300781 221.410156 247.742188 228.71875 247.742188 231.808594 C 247.742188 234.898438 247.84375 289.351562 247.84375 289.351562 L 280.476562 289.351562 L 280.476562 229.03125 C 280.476562 229.03125 282.84375 194.957031 262.390625 185.621094 C 262.390625 185.621094 228.765625 170.523438 210.511719 198.25 C 210.511719 198.25 206.53125 200.992188 205.980469 193.308594 C 205.429688 185.621094 200.765625 205.113281 200.628906 205.523438 C 200.492188 205.9375 205.980469 244.367188 205.980469 244.367188 Z M 211.171875 240.113281 " fill-opacity="1" fill-rule="nonzero"/></svg>