<svg xmlns="http://www.w3.org/2000/svg" xmlns:xlink="http://www.w3.org/1999/xlink" width="500" zoomAndPan="magnify" viewBox="0 0 375 374.999991" height="500" preserveAspectRatio="xMidYMid meet" version="1.0"><defs><clipPath id="4efe5a3187"><path d="M 47.269531 75.667969 L 327.769531 75.667969 L 327.769531 299.167969 L 47.269531 299.167969 Z M 47.269531 75.667969 " clip-rule="nonzero"/></clipPath></defs><g clip-path="url(#4efe5a3187)"><path fill="#1f7a5a" d="M 323.917969 148.261719 C 320.929688 144.234375 316.308594 141.910156 311.277344 141.910156 L 286.285156 141.910156 L 286.285156 123.042969 C 286.285156 112.636719 277.824219 104.179688 267.417969 104.179688 L 153.917969 104.179688 L 130.621094 77.988281 C 129.457031 76.636719 127.726562 75.882812 125.933594 75.882812 L 66.195312 75.882812 C 55.789062 75.882812 47.332031 84.339844 47.332031 94.746094 L 47.332031 280.25 C 47.332031 290.65625 55.789062 299.113281 66.195312 299.113281 L 273.015625 299.113281 C 279.964844 299.113281 286.03125 294.648438 288.042969 287.984375 L 326.308594 162.21875 C 327.785156 157.378906 326.90625 152.316406 323.917969 148.261719 Z M 59.910156 94.746094 C 59.910156 91.289062 62.738281 88.460938 66.195312 88.460938 L 123.105469 88.460938 L 146.402344 114.648438 C 147.566406 116 149.296875 116.757812 151.085938 116.757812 L 267.417969 116.757812 C 270.878906 116.757812 273.707031 119.585938 273.707031 123.042969 L 273.707031 141.910156 L 104.617188 141.910156 C 97.667969 141.910156 91.601562 146.375 89.589844 153.039062 L 59.910156 250.570312 Z M 314.296875 158.542969 L 276.003906 284.304688 C 275.59375 285.625 274.398438 286.539062 273.015625 286.539062 L 66.355469 286.539062 C 64.972656 286.539062 64.183594 285.75 63.839844 285.28125 C 63.460938 284.777344 62.925781 283.800781 63.335938 282.480469 L 101.632812 156.71875 C 102.039062 155.367188 103.234375 154.484375 104.617188 154.484375 L 311.277344 154.484375 C 312.664062 154.484375 313.449219 155.269531 313.792969 155.742188 C 314.171875 156.246094 314.707031 157.222656 314.296875 158.542969 Z M 314.296875 158.542969 " fill-opacity="1" fill-rule="nonzero"/></g></svg>