<svg xmlns="http://www.w3.org/2000/svg" xmlns:xlink="http://www.w3.org/1999/xlink" width="500" zoomAndPan="magnify" viewBox="0 0 375 374.999991" height="500" preserveAspectRatio="xMidYMid meet" version="1.0"><defs><clipPath id="41ec27a542"><path d="M 112.5 151 L 223 151 L 223 261.5 L 112.5 261.5 Z M 112.5 151 " clip-rule="nonzero"/></clipPath><clipPath id="c1a1512d93"><path d="M 185 113.75 L 262.5 113.75 L 262.5 192 L 185 192 Z M 185 113.75 " clip-rule="nonzero"/></clipPath></defs><g clip-path="url(#41ec27a542)"><path fill="#1f7a5a" d="M 175 261.242188 L 160 261.242188 C 159.695312 261.242188 159.394531 261.1875 159.109375 261.078125 C 158.820312 260.96875 158.5625 260.808594 158.332031 260.605469 C 158.105469 260.398438 157.917969 260.160156 157.777344 259.886719 C 157.636719 259.613281 157.550781 259.324219 157.515625 259.015625 L 156.203125 247.183594 C 152.816406 246.253906 149.601562 244.921875 146.550781 243.1875 L 137.253906 250.621094 C 137.011719 250.8125 136.746094 250.957031 136.453125 251.050781 C 136.160156 251.144531 135.859375 251.179688 135.554688 251.164062 C 135.246094 251.148438 134.953125 251.078125 134.671875 250.953125 C 134.390625 250.824219 134.144531 250.65625 133.925781 250.4375 L 123.308594 239.832031 C 123.089844 239.613281 122.917969 239.363281 122.792969 239.082031 C 122.664062 238.800781 122.59375 238.503906 122.578125 238.195312 C 122.5625 237.890625 122.597656 237.589844 122.695312 237.292969 C 122.789062 237 122.933594 236.734375 123.125 236.492188 L 130.566406 227.1875 C 128.832031 224.136719 127.5 220.917969 126.566406 217.535156 L 114.730469 216.230469 C 114.421875 216.195312 114.132812 216.109375 113.859375 215.96875 C 113.585938 215.828125 113.347656 215.640625 113.140625 215.414062 C 112.9375 215.183594 112.777344 214.925781 112.667969 214.636719 C 112.558594 214.351562 112.503906 214.050781 112.503906 213.746094 L 112.503906 198.746094 C 112.503906 198.4375 112.558594 198.140625 112.667969 197.851562 C 112.777344 197.566406 112.9375 197.308594 113.140625 197.078125 C 113.347656 196.847656 113.585938 196.664062 113.859375 196.523438 C 114.132812 196.382812 114.421875 196.292969 114.730469 196.261719 L 126.5625 194.945312 C 127.492188 191.5625 128.824219 188.34375 130.558594 185.292969 L 123.125 175.996094 C 122.933594 175.757812 122.792969 175.492188 122.699219 175.199219 C 122.605469 174.90625 122.566406 174.605469 122.582031 174.296875 C 122.597656 173.992188 122.667969 173.699219 122.796875 173.417969 C 122.921875 173.136719 123.089844 172.886719 123.308594 172.667969 L 133.914062 162.0625 C 134.132812 161.84375 134.382812 161.675781 134.664062 161.550781 C 134.945312 161.421875 135.238281 161.351562 135.542969 161.335938 C 135.851562 161.320312 136.152344 161.359375 136.445312 161.453125 C 136.734375 161.546875 137.003906 161.6875 137.242188 161.878906 L 146.550781 169.320312 C 149.601562 167.585938 152.816406 166.253906 156.203125 165.320312 L 157.515625 153.492188 C 157.546875 153.183594 157.632812 152.890625 157.773438 152.617188 C 157.914062 152.339844 158.097656 152.097656 158.328125 151.890625 C 158.558594 151.683594 158.816406 151.527344 159.105469 151.414062 C 159.394531 151.304688 159.691406 151.25 160 151.246094 L 175 151.246094 C 175.308594 151.246094 175.605469 151.304688 175.894531 151.414062 C 176.179688 151.523438 176.4375 151.679688 176.667969 151.886719 C 176.898438 152.089844 177.082031 152.332031 177.222656 152.605469 C 177.363281 152.878906 177.453125 153.167969 177.484375 153.472656 L 178.800781 165.304688 C 182.183594 166.234375 185.402344 167.566406 188.453125 169.304688 L 197.75 161.871094 C 197.988281 161.679688 198.253906 161.535156 198.546875 161.441406 C 198.839844 161.347656 199.140625 161.308594 199.449219 161.324219 C 199.753906 161.34375 200.046875 161.414062 200.328125 161.539062 C 200.609375 161.664062 200.859375 161.835938 201.078125 162.050781 L 211.683594 172.660156 C 211.902344 172.875 212.070312 173.125 212.195312 173.40625 C 212.324219 173.6875 212.394531 173.980469 212.410156 174.289062 C 212.425781 174.59375 212.386719 174.894531 212.292969 175.1875 C 212.199219 175.480469 212.058594 175.746094 211.867188 175.988281 L 204.425781 185.292969 C 206.160156 188.34375 207.492188 191.5625 208.425781 194.945312 L 220.253906 196.261719 C 220.5625 196.292969 220.855469 196.378906 221.128906 196.519531 C 221.40625 196.660156 221.648438 196.84375 221.855469 197.074219 C 222.0625 197.300781 222.21875 197.5625 222.332031 197.847656 C 222.441406 198.136719 222.496094 198.4375 222.5 198.746094 L 222.5 213.746094 C 222.5 214.050781 222.441406 214.351562 222.332031 214.636719 C 222.222656 214.925781 222.066406 215.183594 221.859375 215.414062 C 221.65625 215.640625 221.414062 215.828125 221.140625 215.96875 C 220.867188 216.109375 220.578125 216.195312 220.273438 216.230469 L 208.441406 217.542969 C 207.511719 220.929688 206.179688 224.144531 204.441406 227.195312 L 211.875 236.492188 C 212.066406 236.734375 212.210938 237 212.304688 237.292969 C 212.398438 237.585938 212.4375 237.886719 212.421875 238.191406 C 212.402344 238.5 212.332031 238.792969 212.207031 239.074219 C 212.082031 239.355469 211.910156 239.601562 211.695312 239.820312 L 201.085938 250.429688 C 200.871094 250.644531 200.621094 250.816406 200.339844 250.941406 C 200.058594 251.066406 199.765625 251.136719 199.457031 251.152344 C 199.152344 251.171875 198.851562 251.132812 198.558594 251.039062 C 198.265625 250.945312 198 250.800781 197.757812 250.609375 L 188.453125 243.167969 C 185.402344 244.90625 182.183594 246.238281 178.800781 247.167969 L 177.484375 259 C 177.453125 259.308594 177.367188 259.597656 177.226562 259.875 C 177.085938 260.148438 176.902344 260.390625 176.671875 260.597656 C 176.445312 260.804688 176.183594 260.964844 175.898438 261.074219 C 175.609375 261.1875 175.308594 261.242188 175 261.242188 Z M 162.25 256.242188 L 172.777344 256.242188 L 174.027344 244.910156 C 174.085938 244.382812 174.289062 243.921875 174.644531 243.523438 C 174.996094 243.128906 175.429688 242.871094 175.949219 242.75 C 180.011719 241.8125 183.804688 240.238281 187.335938 238.023438 C 187.789062 237.742188 188.277344 237.617188 188.808594 237.648438 C 189.339844 237.679688 189.808594 237.859375 190.226562 238.191406 L 199.136719 245.320312 L 206.578125 237.878906 L 199.449219 228.964844 C 199.117188 228.550781 198.9375 228.078125 198.90625 227.550781 C 198.875 227.019531 199 226.527344 199.28125 226.078125 C 201.492188 222.546875 203.066406 218.75 204 214.691406 C 204.117188 214.171875 204.375 213.738281 204.773438 213.382812 C 205.167969 213.03125 205.632812 212.824219 206.160156 212.765625 L 217.492188 211.515625 L 217.492188 200.996094 L 206.160156 199.746094 C 205.632812 199.6875 205.167969 199.480469 204.773438 199.128906 C 204.375 198.773438 204.117188 198.339844 204 197.824219 C 203.0625 193.761719 201.488281 189.964844 199.273438 186.433594 C 198.992188 185.984375 198.863281 185.492188 198.894531 184.964844 C 198.925781 184.433594 199.109375 183.960938 199.4375 183.546875 L 206.570312 174.632812 L 199.125 167.191406 L 190.214844 174.320312 C 189.800781 174.652344 189.328125 174.835938 188.796875 174.867188 C 188.269531 174.894531 187.777344 174.769531 187.328125 174.488281 C 183.800781 172.269531 180.003906 170.6875 175.945312 169.746094 C 175.429688 169.628906 174.992188 169.371094 174.640625 168.972656 C 174.289062 168.578125 174.082031 168.113281 174.023438 167.585938 L 172.761719 156.246094 L 162.25 156.246094 L 161 167.578125 C 160.941406 168.105469 160.738281 168.570312 160.382812 168.964844 C 160.03125 169.363281 159.597656 169.621094 159.078125 169.738281 C 155.015625 170.675781 151.222656 172.25 147.691406 174.464844 C 147.238281 174.75 146.75 174.875 146.21875 174.84375 C 145.6875 174.8125 145.21875 174.632812 144.800781 174.300781 L 135.890625 167.167969 L 128.425781 174.613281 L 135.554688 183.523438 C 135.886719 183.9375 136.066406 184.410156 136.097656 184.941406 C 136.128906 185.472656 136.003906 185.960938 135.722656 186.410156 C 133.511719 189.941406 131.9375 193.738281 131.003906 197.800781 C 130.882812 198.316406 130.625 198.753906 130.230469 199.105469 C 129.832031 199.457031 129.371094 199.664062 128.84375 199.722656 L 117.503906 200.996094 L 117.503906 211.519531 L 128.835938 212.769531 C 129.363281 212.828125 129.824219 213.035156 130.222656 213.386719 C 130.617188 213.738281 130.875 214.175781 130.996094 214.691406 C 131.933594 218.753906 133.507812 222.550781 135.722656 226.082031 C 136.003906 226.53125 136.128906 227.023438 136.097656 227.550781 C 136.066406 228.082031 135.886719 228.554688 135.554688 228.96875 L 128.425781 237.878906 L 135.867188 245.320312 L 144.78125 238.191406 C 145.195312 237.859375 145.667969 237.679688 146.195312 237.648438 C 146.726562 237.617188 147.21875 237.742188 147.667969 238.023438 C 151.199219 240.234375 154.996094 241.808594 159.054688 242.742188 C 159.574219 242.863281 160.007812 243.121094 160.363281 243.515625 C 160.714844 243.914062 160.921875 244.375 160.980469 244.902344 Z M 220 213.746094 Z M 220 213.746094 " fill-opacity="1" fill-rule="nonzero"/></g><path fill="#1f7a5a" d="M 167.5 223.746094 C 166.929688 223.746094 166.355469 223.714844 165.785156 223.660156 C 165.214844 223.605469 164.648438 223.519531 164.085938 223.40625 C 163.523438 223.296875 162.96875 223.15625 162.421875 222.992188 C 161.871094 222.824219 161.332031 222.632812 160.804688 222.414062 C 160.273438 222.191406 159.757812 221.949219 159.253906 221.679688 C 158.746094 221.40625 158.253906 221.113281 157.777344 220.796875 C 157.300781 220.476562 156.84375 220.136719 156.398438 219.773438 C 155.957031 219.410156 155.53125 219.023438 155.128906 218.617188 C 154.722656 218.214844 154.335938 217.789062 153.972656 217.347656 C 153.609375 216.902344 153.269531 216.445312 152.949219 215.96875 C 152.632812 215.492188 152.339844 215 152.066406 214.492188 C 151.796875 213.988281 151.554688 213.472656 151.335938 212.941406 C 151.113281 212.414062 150.921875 211.875 150.753906 211.324219 C 150.589844 210.777344 150.449219 210.222656 150.339844 209.660156 C 150.226562 209.097656 150.140625 208.53125 150.085938 207.960938 C 150.03125 207.390625 150.003906 206.816406 150.003906 206.246094 C 150.003906 205.671875 150.03125 205.101562 150.085938 204.53125 C 150.140625 203.960938 150.226562 203.394531 150.339844 202.832031 C 150.449219 202.269531 150.589844 201.714844 150.753906 201.164062 C 150.921875 200.617188 151.113281 200.078125 151.335938 199.546875 C 151.554688 199.019531 151.796875 198.5 152.066406 197.996094 C 152.339844 197.492188 152.632812 197 152.949219 196.523438 C 153.269531 196.046875 153.609375 195.585938 153.972656 195.144531 C 154.335938 194.699219 154.722656 194.277344 155.128906 193.871094 C 155.53125 193.464844 155.957031 193.082031 156.398438 192.71875 C 156.84375 192.355469 157.300781 192.011719 157.777344 191.695312 C 158.253906 191.375 158.746094 191.082031 159.253906 190.8125 C 159.757812 190.542969 160.273438 190.296875 160.804688 190.078125 C 161.332031 189.859375 161.871094 189.664062 162.421875 189.5 C 162.96875 189.332031 163.523438 189.195312 164.085938 189.082031 C 164.648438 188.96875 165.214844 188.886719 165.785156 188.832031 C 166.355469 188.773438 166.929688 188.746094 167.5 188.746094 C 168.074219 188.746094 168.644531 188.773438 169.214844 188.832031 C 169.785156 188.886719 170.351562 188.96875 170.914062 189.082031 C 171.476562 189.195312 172.03125 189.332031 172.582031 189.5 C 173.128906 189.664062 173.667969 189.859375 174.199219 190.078125 C 174.726562 190.296875 175.246094 190.542969 175.75 190.8125 C 176.253906 191.082031 176.746094 191.375 177.222656 191.695312 C 177.699219 192.011719 178.160156 192.355469 178.601562 192.71875 C 179.046875 193.082031 179.46875 193.464844 179.875 193.871094 C 180.28125 194.277344 180.664062 194.699219 181.027344 195.144531 C 181.390625 195.585938 181.734375 196.046875 182.050781 196.523438 C 182.371094 197 182.664062 197.492188 182.933594 197.996094 C 183.203125 198.5 183.449219 199.019531 183.667969 199.546875 C 183.886719 200.078125 184.082031 200.617188 184.246094 201.164062 C 184.414062 201.714844 184.550781 202.269531 184.664062 202.832031 C 184.777344 203.394531 184.859375 203.960938 184.914062 204.53125 C 184.972656 205.101562 185 205.671875 185 206.246094 C 185 206.816406 184.972656 207.390625 184.914062 207.960938 C 184.855469 208.53125 184.773438 209.097656 184.660156 209.65625 C 184.546875 210.21875 184.410156 210.773438 184.242188 211.324219 C 184.074219 211.871094 183.882812 212.410156 183.664062 212.9375 C 183.441406 213.46875 183.199219 213.984375 182.929688 214.488281 C 182.65625 214.996094 182.363281 215.484375 182.042969 215.960938 C 181.726562 216.4375 181.386719 216.898438 181.023438 217.339844 C 180.660156 217.785156 180.273438 218.207031 179.867188 218.613281 C 179.464844 219.019531 179.039062 219.402344 178.597656 219.765625 C 178.152344 220.128906 177.695312 220.46875 177.21875 220.789062 C 176.742188 221.105469 176.25 221.402344 175.746094 221.671875 C 175.242188 221.941406 174.722656 222.1875 174.195312 222.40625 C 173.664062 222.625 173.125 222.820312 172.578125 222.984375 C 172.03125 223.152344 171.476562 223.292969 170.914062 223.40625 C 170.351562 223.515625 169.785156 223.601562 169.214844 223.65625 C 168.644531 223.714844 168.074219 223.742188 167.5 223.746094 Z M 167.5 193.746094 C 166.679688 193.746094 165.867188 193.824219 165.0625 193.984375 C 164.257812 194.144531 163.476562 194.382812 162.71875 194.695312 C 161.960938 195.011719 161.238281 195.394531 160.558594 195.851562 C 159.875 196.308594 159.242188 196.828125 158.664062 197.40625 C 158.082031 197.988281 157.5625 198.617188 157.109375 199.300781 C 156.652344 199.984375 156.265625 200.703125 155.953125 201.460938 C 155.640625 202.21875 155.402344 203 155.242188 203.804688 C 155.082031 204.613281 155 205.425781 155 206.246094 C 155 207.066406 155.082031 207.878906 155.242188 208.683594 C 155.402344 209.488281 155.640625 210.269531 155.953125 211.027344 C 156.265625 211.785156 156.652344 212.507812 157.109375 213.1875 C 157.5625 213.871094 158.082031 214.503906 158.664062 215.082031 C 159.242188 215.664062 159.875 216.183594 160.558594 216.636719 C 161.238281 217.09375 161.960938 217.480469 162.71875 217.792969 C 163.476562 218.105469 164.257812 218.34375 165.0625 218.503906 C 165.867188 218.664062 166.679688 218.746094 167.5 218.746094 C 168.320312 218.746094 169.132812 218.664062 169.941406 218.503906 C 170.746094 218.34375 171.527344 218.105469 172.285156 217.792969 C 173.042969 217.480469 173.761719 217.09375 174.445312 216.636719 C 175.128906 216.183594 175.757812 215.664062 176.339844 215.082031 C 176.917969 214.503906 177.4375 213.871094 177.894531 213.1875 C 178.351562 212.507812 178.734375 211.785156 179.050781 211.027344 C 179.363281 210.269531 179.601562 209.488281 179.761719 208.683594 C 179.921875 207.878906 180 207.066406 180 206.246094 C 180 205.425781 179.917969 204.613281 179.757812 203.808594 C 179.597656 203.003906 179.359375 202.222656 179.046875 201.464844 C 178.730469 200.707031 178.34375 199.988281 177.890625 199.304688 C 177.433594 198.621094 176.914062 197.992188 176.335938 197.410156 C 175.753906 196.832031 175.125 196.3125 174.441406 195.855469 C 173.757812 195.402344 173.039062 195.015625 172.28125 194.703125 C 171.523438 194.386719 170.742188 194.148438 169.9375 193.988281 C 169.132812 193.828125 168.320312 193.746094 167.5 193.746094 Z M 167.5 193.746094 " fill-opacity="1" fill-rule="nonzero"/><g clip-path="url(#c1a1512d93)"><path fill="#1f7a5a" d="M 244.246094 191.070312 C 243.664062 191.070312 243.144531 190.886719 242.6875 190.519531 L 235.910156 185.101562 C 233.234375 186.582031 230.40625 187.664062 227.429688 188.351562 C 227.105469 188.425781 226.78125 188.433594 226.453125 188.378906 C 226.125 188.324219 225.824219 188.210938 225.542969 188.035156 C 225.261719 187.859375 225.023438 187.632812 224.832031 187.363281 C 224.640625 187.09375 224.507812 186.796875 224.433594 186.476562 C 224.359375 186.152344 224.347656 185.828125 224.402344 185.5 C 224.457031 185.175781 224.574219 184.871094 224.75 184.589844 C 224.925781 184.308594 225.148438 184.070312 225.417969 183.878906 C 225.6875 183.6875 225.984375 183.554688 226.304688 183.480469 C 229.335938 182.78125 232.171875 181.605469 234.804688 179.953125 C 235.253906 179.671875 235.746094 179.542969 236.273438 179.574219 C 236.804688 179.605469 237.277344 179.789062 237.691406 180.117188 L 244.066406 185.21875 L 248.980469 180.300781 L 243.882812 173.929688 C 243.550781 173.515625 243.367188 173.042969 243.339844 172.511719 C 243.308594 171.980469 243.433594 171.492188 243.714844 171.042969 C 245.367188 168.40625 246.542969 165.574219 247.242188 162.542969 C 247.359375 162.023438 247.617188 161.589844 248.015625 161.238281 C 248.410156 160.882812 248.875 160.679688 249.402344 160.621094 L 257.496094 159.726562 L 257.496094 152.769531 L 249.390625 151.871094 C 248.863281 151.8125 248.402344 151.605469 248.003906 151.253906 C 247.609375 150.898438 247.351562 150.464844 247.230469 149.949219 C 246.535156 146.917969 245.359375 144.082031 243.703125 141.449219 C 243.421875 141 243.296875 140.507812 243.328125 139.976562 C 243.359375 139.449219 243.539062 138.976562 243.871094 138.5625 L 248.972656 132.1875 L 244.054688 127.273438 L 237.683594 132.375 C 237.269531 132.707031 236.796875 132.886719 236.265625 132.917969 C 235.734375 132.949219 235.246094 132.824219 234.796875 132.542969 C 232.160156 130.886719 229.328125 129.710938 226.296875 129.015625 C 225.777344 128.894531 225.34375 128.636719 224.992188 128.242188 C 224.636719 127.84375 224.429688 127.382812 224.371094 126.855469 L 223.476562 118.75 L 216.519531 118.75 L 215.621094 126.855469 C 215.5625 127.382812 215.355469 127.84375 215.003906 128.242188 C 214.652344 128.636719 214.214844 128.894531 213.699219 129.015625 C 210.667969 129.710938 207.835938 130.886719 205.199219 132.542969 C 204.75 132.824219 204.257812 132.949219 203.730469 132.917969 C 203.199219 132.886719 202.726562 132.707031 202.3125 132.375 L 195.941406 127.273438 L 191.023438 132.191406 L 196.125 138.5625 C 196.457031 138.976562 196.636719 139.449219 196.667969 139.980469 C 196.699219 140.511719 196.574219 141 196.292969 141.449219 C 194.640625 144.085938 193.464844 146.917969 192.765625 149.949219 C 192.691406 150.273438 192.558594 150.570312 192.363281 150.839844 C 192.171875 151.109375 191.933594 151.332031 191.65625 151.507812 C 191.375 151.683594 191.070312 151.800781 190.742188 151.855469 C 190.414062 151.910156 190.089844 151.898438 189.765625 151.824219 C 189.445312 151.75 189.148438 151.617188 188.878906 151.425781 C 188.609375 151.234375 188.386719 150.996094 188.210938 150.714844 C 188.035156 150.433594 187.917969 150.128906 187.863281 149.804688 C 187.808594 149.476562 187.816406 149.152344 187.890625 148.828125 C 188.578125 145.847656 189.660156 143.019531 191.140625 140.347656 L 185.71875 133.570312 C 185.527344 133.332031 185.386719 133.066406 185.292969 132.773438 C 185.203125 132.480469 185.164062 132.179688 185.179688 131.875 C 185.199219 131.566406 185.269531 131.273438 185.394531 130.996094 C 185.519531 130.714844 185.691406 130.464844 185.90625 130.25 L 194 122.15625 C 194.21875 121.9375 194.464844 121.769531 194.746094 121.640625 C 195.027344 121.515625 195.320312 121.445312 195.628906 121.429688 C 195.9375 121.410156 196.238281 121.449219 196.53125 121.542969 C 196.824219 121.636719 197.089844 121.78125 197.328125 121.972656 L 204.105469 127.394531 C 206.25 126.207031 208.5 125.273438 210.855469 124.59375 L 211.8125 115.976562 C 211.847656 115.671875 211.933594 115.382812 212.074219 115.109375 C 212.214844 114.835938 212.398438 114.597656 212.625 114.390625 C 212.851562 114.1875 213.109375 114.03125 213.394531 113.917969 C 213.679688 113.808594 213.976562 113.75 214.285156 113.75 L 225.714844 113.75 C 226.019531 113.75 226.316406 113.804688 226.605469 113.914062 C 226.890625 114.027344 227.148438 114.183594 227.378906 114.386719 C 227.609375 114.59375 227.792969 114.832031 227.933594 115.105469 C 228.074219 115.378906 228.160156 115.667969 228.195312 115.976562 L 229.15625 124.59375 C 231.511719 125.273438 233.761719 126.207031 235.90625 127.394531 L 242.679688 121.972656 C 242.917969 121.78125 243.1875 121.636719 243.480469 121.542969 C 243.773438 121.449219 244.074219 121.410156 244.378906 121.429688 C 244.6875 121.445312 244.980469 121.515625 245.261719 121.640625 C 245.542969 121.769531 245.792969 121.9375 246.007812 122.15625 L 254.089844 130.25 C 254.304688 130.464844 254.476562 130.714844 254.605469 130.996094 C 254.730469 131.277344 254.800781 131.570312 254.816406 131.878906 C 254.835938 132.1875 254.796875 132.484375 254.703125 132.777344 C 254.609375 133.070312 254.464844 133.339844 254.273438 133.578125 L 248.851562 140.355469 C 250.039062 142.5 250.972656 144.746094 251.652344 147.101562 L 260.269531 148.0625 C 260.578125 148.097656 260.867188 148.183594 261.140625 148.324219 C 261.414062 148.464844 261.652344 148.652344 261.859375 148.878906 C 262.0625 149.109375 262.21875 149.367188 262.332031 149.652344 C 262.441406 149.941406 262.496094 150.238281 262.496094 150.546875 L 262.496094 161.976562 C 262.496094 162.28125 262.441406 162.578125 262.332031 162.867188 C 262.21875 163.152344 262.0625 163.414062 261.859375 163.640625 C 261.652344 163.871094 261.414062 164.054688 261.140625 164.195312 C 260.867188 164.335938 260.578125 164.421875 260.269531 164.457031 L 251.652344 165.417969 C 250.972656 167.773438 250.039062 170.023438 248.851562 172.167969 L 254.273438 178.941406 C 254.464844 179.183594 254.609375 179.449219 254.703125 179.742188 C 254.796875 180.035156 254.835938 180.335938 254.816406 180.640625 C 254.800781 180.949219 254.730469 181.242188 254.605469 181.523438 C 254.476562 181.804688 254.304688 182.054688 254.089844 182.269531 L 245.996094 190.339844 C 245.515625 190.820312 244.929688 191.066406 244.246094 191.070312 Z M 244.246094 191.070312 " fill-opacity="1" fill-rule="nonzero"/></g><path fill="#1f7a5a" d="M 220 170.175781 C 219.082031 170.175781 218.179688 170.085938 217.28125 169.90625 C 216.382812 169.726562 215.511719 169.464844 214.667969 169.113281 C 213.824219 168.765625 213.019531 168.335938 212.261719 167.828125 C 211.5 167.320312 210.796875 166.742188 210.152344 166.09375 C 209.503906 165.449219 208.925781 164.746094 208.417969 163.984375 C 207.910156 163.226562 207.480469 162.421875 207.132812 161.578125 C 206.78125 160.734375 206.515625 159.863281 206.339844 158.964844 C 206.160156 158.066406 206.070312 157.164062 206.070312 156.246094 C 206.070312 155.332031 206.160156 154.425781 206.339844 153.53125 C 206.515625 152.632812 206.78125 151.761719 207.132812 150.917969 C 207.480469 150.074219 207.910156 149.269531 208.417969 148.511719 C 208.925781 147.75 209.503906 147.046875 210.152344 146.398438 C 210.796875 145.753906 211.5 145.175781 212.261719 144.667969 C 213.019531 144.160156 213.824219 143.730469 214.667969 143.382812 C 215.511719 143.03125 216.382812 142.765625 217.28125 142.589844 C 218.179688 142.410156 219.082031 142.320312 220 142.320312 C 220.914062 142.320312 221.820312 142.410156 222.714844 142.589844 C 223.613281 142.765625 224.484375 143.03125 225.328125 143.382812 C 226.171875 143.730469 226.976562 144.160156 227.734375 144.667969 C 228.496094 145.175781 229.199219 145.753906 229.847656 146.398438 C 230.492188 147.046875 231.070312 147.75 231.578125 148.511719 C 232.085938 149.269531 232.515625 150.074219 232.863281 150.917969 C 233.214844 151.761719 233.480469 152.632812 233.65625 153.53125 C 233.835938 154.425781 233.925781 155.332031 233.925781 156.246094 C 233.925781 157.160156 233.835938 158.066406 233.65625 158.964844 C 233.476562 159.859375 233.210938 160.730469 232.859375 161.574219 C 232.511719 162.417969 232.082031 163.222656 231.574219 163.980469 C 231.066406 164.742188 230.488281 165.445312 229.839844 166.089844 C 229.195312 166.738281 228.492188 167.316406 227.730469 167.824219 C 226.972656 168.332031 226.167969 168.761719 225.324219 169.109375 C 224.480469 169.460938 223.609375 169.726562 222.714844 169.90625 C 221.816406 170.082031 220.914062 170.171875 220 170.175781 Z M 220 147.320312 C 219.414062 147.320312 218.832031 147.378906 218.257812 147.492188 C 217.683594 147.605469 217.125 147.777344 216.582031 148 C 216.039062 148.222656 215.527344 148.5 215.039062 148.824219 C 214.550781 149.152344 214.101562 149.519531 213.6875 149.933594 C 213.269531 150.351562 212.902344 150.800781 212.574219 151.289062 C 212.25 151.777344 211.976562 152.289062 211.75 152.832031 C 211.527344 153.371094 211.355469 153.929688 211.242188 154.507812 C 211.128906 155.082031 211.070312 155.660156 211.070312 156.246094 C 211.070312 156.832031 211.128906 157.414062 211.242188 157.988281 C 211.355469 158.5625 211.527344 159.121094 211.75 159.664062 C 211.976562 160.207031 212.25 160.71875 212.574219 161.207031 C 212.902344 161.695312 213.269531 162.144531 213.6875 162.558594 C 214.101562 162.972656 214.550781 163.34375 215.039062 163.671875 C 215.527344 163.996094 216.039062 164.269531 216.582031 164.496094 C 217.125 164.71875 217.683594 164.890625 218.257812 165.003906 C 218.832031 165.117188 219.410156 165.175781 220 165.175781 C 220.585938 165.175781 221.164062 165.117188 221.738281 165.003906 C 222.316406 164.890625 222.871094 164.71875 223.414062 164.496094 C 223.957031 164.269531 224.46875 163.996094 224.957031 163.671875 C 225.445312 163.34375 225.894531 162.972656 226.3125 162.558594 C 226.726562 162.144531 227.09375 161.695312 227.421875 161.207031 C 227.746094 160.71875 228.019531 160.207031 228.246094 159.664062 C 228.46875 159.121094 228.640625 158.5625 228.753906 157.988281 C 228.867188 157.414062 228.925781 156.832031 228.925781 156.246094 C 228.925781 155.660156 228.867188 155.082031 228.753906 154.507812 C 228.636719 153.933594 228.46875 153.375 228.242188 152.832031 C 228.019531 152.292969 227.742188 151.777344 227.417969 151.289062 C 227.09375 150.804688 226.722656 150.351562 226.308594 149.9375 C 225.894531 149.523438 225.441406 149.152344 224.957031 148.828125 C 224.46875 148.503906 223.953125 148.226562 223.414062 148.003906 C 222.871094 147.777344 222.3125 147.609375 221.738281 147.492188 C 221.164062 147.378906 220.585938 147.320312 220 147.320312 Z M 220 147.320312 " fill-opacity="1" fill-rule="nonzero"/></svg>