<svg xmlns="http://www.w3.org/2000/svg" xmlns:xlink="http://www.w3.org/1999/xlink" width="500" zoomAndPan="magnify" viewBox="0 0 375 374.999991" height="500" preserveAspectRatio="xMidYMid meet" version="1.0"><defs><clipPath id="1bdbf62249"><path d="M 149 112.5 L 226 112.5 L 226 188 L 149 188 Z M 149 112.5 " clip-rule="nonzero"/></clipPath><clipPath id="bcf570e899"><path d="M 127 193 L 248 193 L 248 262.5 L 127 262.5 Z M 127 193 " clip-rule="nonzero"/></clipPath></defs><g clip-path="url(#1bdbf62249)"><path fill="#1f7a5a" d="M 187.488281 187.734375 C 188.722656 187.734375 189.953125 187.671875 191.179688 187.550781 C 192.40625 187.429688 193.621094 187.25 194.832031 187.011719 C 196.039062 186.769531 197.234375 186.472656 198.414062 186.113281 C 199.59375 185.753906 200.75 185.339844 201.890625 184.867188 C 203.027344 184.398438 204.140625 183.871094 205.230469 183.289062 C 206.316406 182.707031 207.371094 182.074219 208.398438 181.390625 C 209.421875 180.707031 210.410156 179.972656 211.363281 179.191406 C 212.316406 178.410156 213.226562 177.582031 214.097656 176.710938 C 214.96875 175.839844 215.796875 174.925781 216.578125 173.976562 C 217.359375 173.023438 218.09375 172.035156 218.777344 171.007812 C 219.464844 169.984375 220.097656 168.929688 220.675781 167.839844 C 221.257812 166.753906 221.785156 165.640625 222.257812 164.503906 C 222.726562 163.363281 223.144531 162.207031 223.5 161.027344 C 223.859375 159.847656 224.15625 158.652344 224.398438 157.445312 C 224.636719 156.234375 224.820312 155.015625 224.941406 153.789062 C 225.0625 152.5625 225.121094 151.335938 225.121094 150.101562 C 225.121094 148.871094 225.0625 147.640625 224.941406 146.414062 C 224.820312 145.1875 224.636719 143.96875 224.398438 142.761719 C 224.15625 141.550781 223.859375 140.359375 223.5 139.179688 C 223.144531 138 222.726562 136.839844 222.257812 135.699219 C 221.785156 134.5625 221.257812 133.449219 220.679688 132.363281 C 220.097656 131.277344 219.464844 130.21875 218.777344 129.195312 C 218.09375 128.171875 217.359375 127.179688 216.578125 126.230469 C 215.796875 125.277344 214.972656 124.363281 214.097656 123.492188 C 213.226562 122.621094 212.316406 121.792969 211.363281 121.011719 C 210.410156 120.230469 209.421875 119.496094 208.398438 118.8125 C 207.371094 118.128906 206.316406 117.496094 205.230469 116.914062 C 204.140625 116.332031 203.03125 115.804688 201.890625 115.335938 C 200.753906 114.863281 199.59375 114.449219 198.414062 114.089844 C 197.234375 113.734375 196.039062 113.433594 194.832031 113.195312 C 193.621094 112.953125 192.40625 112.773438 191.179688 112.652344 C 189.953125 112.53125 188.722656 112.46875 187.488281 112.46875 C 186.257812 112.46875 185.027344 112.53125 183.800781 112.652344 C 182.574219 112.773438 181.355469 112.953125 180.148438 113.191406 C 178.941406 113.433594 177.746094 113.734375 176.566406 114.089844 C 175.386719 114.449219 174.226562 114.863281 173.089844 115.335938 C 171.949219 115.804688 170.835938 116.332031 169.75 116.914062 C 168.664062 117.496094 167.609375 118.128906 166.582031 118.8125 C 165.558594 119.496094 164.570312 120.230469 163.617188 121.011719 C 162.664062 121.792969 161.75 122.621094 160.878906 123.492188 C 160.007812 124.363281 159.183594 125.273438 158.398438 126.226562 C 157.617188 127.179688 156.886719 128.167969 156.199219 129.195312 C 155.515625 130.21875 154.882812 131.273438 154.300781 132.363281 C 153.71875 133.449219 153.195312 134.5625 152.722656 135.699219 C 152.25 136.839844 151.835938 137.996094 151.476562 139.175781 C 151.121094 140.355469 150.820312 141.550781 150.582031 142.757812 C 150.339844 143.96875 150.160156 145.1875 150.039062 146.414062 C 149.917969 147.640625 149.859375 148.867188 149.859375 150.101562 C 149.859375 151.332031 149.921875 152.5625 150.042969 153.789062 C 150.164062 155.015625 150.347656 156.230469 150.585938 157.441406 C 150.828125 158.648438 151.128906 159.839844 151.488281 161.019531 C 151.847656 162.199219 152.261719 163.359375 152.734375 164.496094 C 153.207031 165.632812 153.730469 166.746094 154.3125 167.832031 C 154.894531 168.917969 155.527344 169.972656 156.210938 171 C 156.898438 172.023438 157.628906 173.011719 158.414062 173.964844 C 159.195312 174.914062 160.019531 175.828125 160.890625 176.699219 C 161.761719 177.570312 162.675781 178.398438 163.628906 179.179688 C 164.578125 179.960938 165.566406 180.695312 166.59375 181.378906 C 167.617188 182.0625 168.671875 182.695312 169.757812 183.277344 C 170.84375 183.859375 171.957031 184.386719 173.09375 184.859375 C 174.234375 185.328125 175.390625 185.746094 176.570312 186.105469 C 177.75 186.460938 178.941406 186.761719 180.152344 187.003906 C 181.359375 187.246094 182.574219 187.425781 183.800781 187.546875 C 185.027344 187.671875 186.257812 187.730469 187.488281 187.734375 Z M 187.488281 118.980469 C 188.507812 118.976562 189.527344 119.027344 190.539062 119.128906 C 191.554688 119.226562 192.5625 119.378906 193.5625 119.578125 C 194.5625 119.773438 195.550781 120.023438 196.523438 120.320312 C 197.5 120.613281 198.457031 120.957031 199.402344 121.347656 C 200.34375 121.738281 201.261719 122.171875 202.160156 122.652344 C 203.0625 123.132812 203.933594 123.65625 204.78125 124.222656 C 205.628906 124.789062 206.445312 125.394531 207.234375 126.042969 C 208.023438 126.691406 208.777344 127.375 209.5 128.09375 C 210.21875 128.816406 210.902344 129.570312 211.550781 130.359375 C 212.195312 131.144531 212.800781 131.964844 213.367188 132.8125 C 213.933594 133.660156 214.457031 134.53125 214.9375 135.429688 C 215.421875 136.328125 215.855469 137.25 216.246094 138.191406 C 216.636719 139.132812 216.976562 140.09375 217.273438 141.066406 C 217.570312 142.042969 217.816406 143.03125 218.015625 144.03125 C 218.214844 145.03125 218.363281 146.039062 218.464844 147.050781 C 218.566406 148.066406 218.613281 149.082031 218.613281 150.101562 C 218.613281 151.121094 218.566406 152.140625 218.464844 153.152344 C 218.363281 154.167969 218.214844 155.175781 218.015625 156.175781 C 217.816406 157.175781 217.570312 158.164062 217.273438 159.136719 C 216.976562 160.113281 216.636719 161.070312 216.246094 162.015625 C 215.855469 162.957031 215.417969 163.875 214.9375 164.773438 C 214.457031 165.675781 213.933594 166.546875 213.367188 167.394531 C 212.800781 168.242188 212.195312 169.058594 211.550781 169.847656 C 210.902344 170.636719 210.21875 171.390625 209.5 172.109375 C 208.777344 172.832031 208.023438 173.515625 207.234375 174.164062 C 206.445312 174.808594 205.628906 175.414062 204.78125 175.980469 C 203.933594 176.546875 203.0625 177.070312 202.160156 177.550781 C 201.261719 178.03125 200.34375 178.46875 199.402344 178.859375 C 198.457031 179.25 197.5 179.589844 196.523438 179.886719 C 195.550781 180.183594 194.5625 180.429688 193.5625 180.628906 C 192.5625 180.828125 191.554688 180.976562 190.539062 181.078125 C 189.527344 181.175781 188.507812 181.226562 187.488281 181.226562 C 186.46875 181.226562 185.453125 181.175781 184.4375 181.078125 C 183.425781 180.976562 182.417969 180.828125 181.417969 180.628906 C 180.417969 180.429688 179.429688 180.183594 178.453125 179.886719 C 177.480469 179.589844 176.519531 179.246094 175.578125 178.855469 C 174.636719 178.46875 173.714844 178.03125 172.816406 177.550781 C 171.917969 177.070312 171.046875 176.546875 170.199219 175.980469 C 169.351562 175.414062 168.53125 174.808594 167.746094 174.160156 C 166.957031 173.515625 166.203125 172.832031 165.480469 172.109375 C 164.761719 171.390625 164.078125 170.632812 163.429688 169.847656 C 162.785156 169.058594 162.175781 168.242188 161.609375 167.394531 C 161.042969 166.546875 160.519531 165.671875 160.039062 164.773438 C 159.558594 163.875 159.125 162.953125 158.734375 162.011719 C 158.34375 161.070312 158 160.113281 157.707031 159.136719 C 157.410156 158.160156 157.164062 157.171875 156.964844 156.171875 C 156.765625 155.171875 156.617188 154.167969 156.515625 153.152344 C 156.414062 152.136719 156.367188 151.121094 156.367188 150.101562 C 156.367188 149.082031 156.417969 148.066406 156.519531 147.050781 C 156.621094 146.039062 156.769531 145.03125 156.96875 144.03125 C 157.167969 143.03125 157.417969 142.046875 157.714844 141.070312 C 158.011719 140.09375 158.355469 139.136719 158.746094 138.195312 C 159.136719 137.253906 159.570312 136.335938 160.050781 135.4375 C 160.53125 134.539062 161.054688 133.664062 161.621094 132.816406 C 162.1875 131.972656 162.796875 131.152344 163.441406 130.367188 C 164.089844 129.578125 164.773438 128.824219 165.492188 128.105469 C 166.214844 127.382812 166.96875 126.699219 167.753906 126.054688 C 168.542969 125.40625 169.359375 124.800781 170.207031 124.234375 C 171.054688 123.667969 171.925781 123.144531 172.824219 122.664062 C 173.722656 122.183594 174.644531 121.746094 175.585938 121.355469 C 176.527344 120.964844 177.484375 120.621094 178.457031 120.328125 C 179.433594 120.03125 180.421875 119.78125 181.421875 119.582031 C 182.417969 119.382812 183.425781 119.230469 184.441406 119.132812 C 185.453125 119.03125 186.46875 118.980469 187.488281 118.980469 Z M 187.488281 118.980469 " fill-opacity="1" fill-rule="nonzero"/></g><g clip-path="url(#bcf570e899)"><path fill="#1f7a5a" d="M 187.488281 193.730469 C 185.515625 193.734375 183.542969 193.832031 181.578125 194.027344 C 179.613281 194.222656 177.660156 194.515625 175.722656 194.902344 C 173.785156 195.289062 171.871094 195.769531 169.984375 196.34375 C 168.09375 196.917969 166.234375 197.585938 164.410156 198.339844 C 162.585938 199.097656 160.804688 199.941406 159.0625 200.875 C 157.320312 201.804688 155.628906 202.820312 153.984375 203.917969 C 152.34375 205.015625 150.757812 206.191406 149.230469 207.445312 C 147.703125 208.699219 146.242188 210.023438 144.847656 211.421875 C 143.449219 212.820312 142.125 214.28125 140.871094 215.808594 C 139.617188 217.335938 138.441406 218.917969 137.34375 220.5625 C 136.246094 222.203125 135.230469 223.894531 134.296875 225.636719 C 133.367188 227.378906 132.523438 229.160156 131.765625 230.988281 C 131.007812 232.8125 130.34375 234.667969 129.765625 236.558594 C 129.191406 238.449219 128.710938 240.363281 128.324219 242.300781 C 127.9375 244.234375 127.644531 246.1875 127.449219 248.152344 C 127.253906 250.117188 127.15625 252.089844 127.152344 254.066406 C 127.152344 254.621094 127.207031 255.167969 127.316406 255.710938 C 127.421875 256.257812 127.582031 256.785156 127.796875 257.296875 C 128.007812 257.808594 128.269531 258.296875 128.574219 258.757812 C 128.882812 259.21875 129.234375 259.644531 129.625 260.035156 C 130.019531 260.425781 130.445312 260.777344 130.90625 261.085938 C 131.367188 261.394531 131.851562 261.652344 132.367188 261.867188 C 132.878906 262.078125 133.40625 262.238281 133.949219 262.34375 C 134.492188 262.453125 135.042969 262.507812 135.597656 262.507812 L 239.375 262.507812 C 240.703125 262.503906 241.960938 262.203125 243.144531 261.613281 C 244.332031 261.019531 245.324219 260.195312 246.125 259.136719 C 247.261719 257.636719 247.824219 255.945312 247.820312 254.0625 C 247.816406 252.085938 247.71875 250.117188 247.523438 248.152344 C 247.328125 246.1875 247.035156 244.234375 246.648438 242.296875 C 246.261719 240.359375 245.78125 238.449219 245.207031 236.558594 C 244.632812 234.667969 243.964844 232.808594 243.210938 230.984375 C 242.453125 229.160156 241.609375 227.378906 240.675781 225.636719 C 239.742188 223.894531 238.730469 222.203125 237.632812 220.5625 C 236.535156 218.917969 235.359375 217.335938 234.105469 215.808594 C 232.851562 214.28125 231.527344 212.820312 230.128906 211.421875 C 228.734375 210.027344 227.269531 208.699219 225.746094 207.449219 C 224.21875 206.195312 222.632812 205.019531 220.992188 203.921875 C 219.347656 202.824219 217.65625 201.808594 215.914062 200.875 C 214.175781 199.945312 212.390625 199.097656 210.566406 198.34375 C 208.742188 197.585938 206.882812 196.917969 204.996094 196.34375 C 203.105469 195.769531 201.191406 195.289062 199.253906 194.902344 C 197.316406 194.515625 195.367188 194.222656 193.402344 194.027344 C 191.433594 193.832031 189.464844 193.734375 187.488281 193.730469 Z M 240.929688 255.230469 C 240.542969 255.746094 240.027344 256 239.378906 256 L 135.601562 256 C 135.257812 256 134.941406 255.917969 134.644531 255.75 C 134.347656 255.578125 134.109375 255.347656 133.9375 255.054688 C 133.753906 254.75 133.664062 254.417969 133.664062 254.0625 C 133.671875 252.304688 133.765625 250.550781 133.945312 248.800781 C 134.125 247.054688 134.390625 245.316406 134.738281 243.59375 C 135.085938 241.871094 135.519531 240.167969 136.035156 238.488281 C 136.550781 236.808594 137.148438 235.15625 137.828125 233.535156 C 138.503906 231.914062 139.261719 230.328125 140.09375 228.777344 C 140.929688 227.230469 141.835938 225.726562 142.816406 224.269531 C 143.796875 222.808594 144.847656 221.402344 145.964844 220.042969 C 147.082031 218.6875 148.265625 217.390625 149.511719 216.148438 C 150.757812 214.910156 152.058594 213.730469 153.421875 212.617188 C 154.78125 211.507812 156.195312 210.460938 157.65625 209.488281 C 159.121094 208.511719 160.628906 207.613281 162.179688 206.785156 C 163.730469 205.960938 165.320312 205.210938 166.945312 204.539062 C 168.570312 203.867188 170.226562 203.277344 171.90625 202.769531 C 173.589844 202.261719 175.292969 201.835938 177.019531 201.492188 C 178.742188 201.148438 180.480469 200.894531 182.230469 200.722656 C 183.980469 200.550781 185.734375 200.464844 187.492188 200.464844 C 189.25 200.464844 191.003906 200.550781 192.753906 200.722656 C 194.503906 200.894531 196.242188 201.148438 197.964844 201.492188 C 199.691406 201.835938 201.394531 202.261719 203.074219 202.769531 C 204.757812 203.277344 206.414062 203.867188 208.039062 204.539062 C 209.664062 205.210938 211.25 205.960938 212.804688 206.785156 C 214.355469 207.613281 215.863281 208.511719 217.324219 209.488281 C 218.789062 210.460938 220.199219 211.507812 221.5625 212.617188 C 222.921875 213.730469 224.226562 214.910156 225.472656 216.148438 C 226.71875 217.390625 227.902344 218.6875 229.019531 220.042969 C 230.136719 221.402344 231.1875 222.808594 232.167969 224.269531 C 233.148438 225.726562 234.054688 227.230469 234.890625 228.777344 C 235.722656 230.328125 236.476562 231.914062 237.15625 233.535156 C 237.832031 235.15625 238.429688 236.808594 238.945312 238.488281 C 239.464844 240.167969 239.894531 241.871094 240.246094 243.59375 C 240.59375 245.316406 240.859375 247.054688 241.039062 248.800781 C 241.21875 250.550781 241.3125 252.304688 241.320312 254.0625 C 241.316406 254.492188 241.1875 254.882812 240.925781 255.226562 Z M 240.929688 255.230469 " fill-opacity="1" fill-rule="nonzero"/></g></svg>